# xmcd CD database file
#
# Track frame offsets:
#	150
#	17417
#	34040
#	55505
#	76350
#	98840
#	121540
#	141845
#	157752
#
# Disc length: 2300 seconds
#
# Revision: 0
# Processed by: cddbd v1.5.2PL0 Copyright (c) Steve Scherf et al.
# Submitted via: CDex 1.70beta2
#
DISCID=5808fa09
DTITLE=WILLIE ROSARIO - OTRA VEZ
DYEAR=1994
DGENRE=Salsa
TTITLE0=Antonia
TTITLE1=Oriente
TTITLE2=Recordando A Tito
TTITLE3=Solitario
TTITLE4=No Liores, Corazon
TTITLE5=Cassualidades
TTITLE6=Cuando Liegara
TTITLE7=Domingo De Verano
TTITLE8=Otra Vez
EXTD=YEAR: 1994
EXTT0=
EXTT1=
EXTT2=
EXTT3=
EXTT4=
EXTT5=
EXTT6=
EXTT7=
EXTT8=
PLAYORDER=
